<svg width="81" height="25" viewBox="0 0 81 25" fill="none" xmlns="http://www.w3.org/2000/svg">
<path d="M16.944 6.272V24H12.432V21.76C11.856 22.528 11.0987 23.136 10.16 23.584C9.24267 24.0107 8.24 24.224 7.152 24.224C5.76533 24.224 4.53867 23.936 3.472 23.36C2.40533 22.7627 1.56267 21.8987 0.944 20.768C0.346667 19.616 0.0480001 18.2507 0.0480001 16.672V6.272H4.528V16.032C4.528 17.44 4.88 18.528 5.584 19.296C6.288 20.0427 7.248 20.416 8.464 20.416C9.70133 20.416 10.672 20.0427 11.376 19.296C12.08 18.528 12.432 17.44 12.432 16.032V6.272H16.944ZM25.8443 0.32V24H21.3643V0.32H25.8443ZM52.2865 6.016C54.4625 6.016 56.2118 6.688 57.5345 8.032C58.8785 9.35467 59.5505 11.2107 59.5505 13.6V24H55.0705V14.208C55.0705 12.8213 54.7185 11.7653 54.0145 11.04C53.3105 10.2933 52.3505 9.92 51.1345 9.92C49.9185 9.92 48.9478 10.2933 48.2225 11.04C47.5185 11.7653 47.1665 12.8213 47.1665 14.208V24H42.6865V14.208C42.6865 12.8213 42.3345 11.7653 41.6305 11.04C40.9265 10.2933 39.9665 9.92 38.7505 9.92C37.5132 9.92 36.5318 10.2933 35.8065 11.04C35.1025 11.7653 34.7505 12.8213 34.7505 14.208V24H30.2705V6.272H34.7505V8.416C35.3265 7.66933 36.0625 7.08267 36.9585 6.656C37.8758 6.22933 38.8785 6.016 39.9665 6.016C41.3532 6.016 42.5905 6.31467 43.6785 6.912C44.7665 7.488 45.6092 8.32 46.2065 9.408C46.7825 8.384 47.6145 7.56267 48.7025 6.944C49.8118 6.32533 51.0065 6.016 52.2865 6.016ZM71.6738 24.288C69.9671 24.288 68.4311 23.9147 67.0658 23.168C65.7004 22.4 64.6231 21.3227 63.8338 19.936C63.0658 18.5493 62.6818 16.9493 62.6818 15.136C62.6818 13.3227 63.0764 11.7227 63.8658 10.336C64.6764 8.94933 65.7751 7.88267 67.1618 7.136C68.5484 6.368 70.0951 5.984 71.8018 5.984C73.5084 5.984 75.0551 6.368 76.4418 7.136C77.8284 7.88267 78.9164 8.94933 79.7058 10.336C80.5164 11.7227 80.9218 13.3227 80.9218 15.136C80.9218 16.9493 80.5058 18.5493 79.6737 19.936C78.8631 21.3227 77.7538 22.4 76.3458 23.168C74.9591 23.9147 73.4018 24.288 71.6738 24.288ZM71.6738 20.384C72.4844 20.384 73.2418 20.192 73.9458 19.808C74.6711 19.4027 75.2471 18.8053 75.6738 18.016C76.1004 17.2267 76.3138 16.2667 76.3138 15.136C76.3138 13.4507 75.8658 12.16 74.9698 11.264C74.0951 10.3467 73.0178 9.888 71.7378 9.888C70.4578 9.888 69.3804 10.3467 68.5058 11.264C67.6524 12.16 67.2258 13.4507 67.2258 15.136C67.2258 16.8213 67.6418 18.1227 68.4738 19.04C69.3271 19.936 70.3938 20.384 71.6738 20.384Z" fill="#212121"/>
</svg>
